<svg width="20" height="20" viewBox="0 0 20 20" fill="none" xmlns="http://www.w3.org/2000/svg">
<path d="M9.99987 7.08649C8.27955 7.08649 6.87565 8.49039 6.87565 10.2107C6.87565 11.931 8.27955 13.3349 9.99987 13.3349C11.7202 13.3349 13.1241 11.931 13.1241 10.2107C13.1241 8.49039 11.7202 7.08649 9.99987 7.08649ZM19.3702 10.2107C19.3702 8.91696 19.3819 7.63493 19.3092 6.34352C19.2366 4.84352 18.8944 3.51227 17.7975 2.41539C16.6983 1.31618 15.3694 0.976332 13.8694 0.903676C12.5756 0.831019 11.2936 0.842738 10.0022 0.842738C8.70846 0.842738 7.42643 0.831019 6.13502 0.903676C4.63502 0.976332 3.30377 1.31852 2.2069 2.41539C1.10768 3.51461 0.767836 4.84352 0.69518 6.34352C0.622523 7.63727 0.634242 8.9193 0.634242 10.2107C0.634242 11.5021 0.622523 12.7865 0.69518 14.0779C0.767836 15.5779 1.11002 16.9091 2.2069 18.006C3.30612 19.1052 4.63502 19.4451 6.13502 19.5177C7.42877 19.5904 8.7108 19.5787 10.0022 19.5787C11.296 19.5787 12.578 19.5904 13.8694 19.5177C15.3694 19.4451 16.7006 19.1029 17.7975 18.006C18.8967 16.9068 19.2366 15.5779 19.3092 14.0779C19.3842 12.7865 19.3702 11.5045 19.3702 10.2107V10.2107ZM9.99987 15.0177C7.33971 15.0177 5.19284 12.8709 5.19284 10.2107C5.19284 7.55055 7.33971 5.40368 9.99987 5.40368C12.66 5.40368 14.8069 7.55055 14.8069 10.2107C14.8069 12.8709 12.66 15.0177 9.99987 15.0177ZM15.0038 6.32946C14.3827 6.32946 13.8811 5.82789 13.8811 5.2068C13.8811 4.58571 14.3827 4.08414 15.0038 4.08414C15.6249 4.08414 16.1264 4.58571 16.1264 5.2068C16.1266 5.35428 16.0977 5.50035 16.0413 5.63664C15.985 5.77293 15.9023 5.89677 15.798 6.00105C15.6937 6.10534 15.5699 6.18802 15.4336 6.24438C15.2973 6.30073 15.1513 6.32964 15.0038 6.32946V6.32946Z" fill="#AEAFB4"/>
</svg>
