<svg width="22" height="22" viewBox="0 0 22 22" fill="none" xmlns="http://www.w3.org/2000/svg">
<path d="M5.201 21.2104H0.84725V7.18995H5.201V21.2104ZM3.0215 5.27745C1.6295 5.27745 0.5 4.12395 0.5 2.73195C0.5 2.06321 0.765657 1.42185 1.23853 0.948979C1.7114 0.476107 2.35276 0.210449 3.0215 0.210449C3.69024 0.210449 4.3316 0.476107 4.80447 0.948979C5.27734 1.42185 5.543 2.06321 5.543 2.73195C5.543 4.12395 4.4135 5.27745 3.0215 5.27745ZM21.4955 21.2104H17.1515V14.3854C17.1515 12.7587 17.1185 10.6729 14.888 10.6729C12.6245 10.6729 12.2772 12.4399 12.2772 14.2684V21.2104H7.928V7.18995H12.1033V9.10245H12.164C12.7453 8.0007 14.165 6.8382 16.283 6.8382C20.6893 6.8382 21.4993 9.73995 21.4993 13.5087V21.2104H21.4955Z" fill="#AEAFB4"/>
</svg>
