<svg width="22" height="18" viewBox="0 0 22 18" fill="none" xmlns="http://www.w3.org/2000/svg">
<path d="M21 1.01001C20 1.50001 19.02 1.69901 18 2.00001C16.879 0.735013 15.217 0.665013 13.62 1.26301C12.023 1.86101 10.977 3.32301 11 5.00001V6.00001C7.755 6.08301 4.865 4.60501 3 2.00001C3 2.00001 -1.182 9.43301 7 13C5.128 14.247 3.261 15.088 1 15C4.308 16.803 7.913 17.423 11.034 16.517C14.614 15.477 17.556 12.794 18.685 8.77501C19.0218 7.55268 19.189 6.28987 19.182 5.02201C19.18 4.77301 20.692 2.25001 21 1.00901V1.01001Z" stroke="white" stroke-width="1.5" stroke-linecap="round" stroke-linejoin="round"/>
</svg>
