<svg width="44" height="48" viewBox="0 0 44 48" fill="none" xmlns="http://www.w3.org/2000/svg">
<path d="M7.98999 37.851L22 45.9389L36.01 37.851" stroke="#E6E6E6" stroke-width="3" stroke-miterlimit="10" stroke-linecap="round" stroke-linejoin="round"/>
<path d="M17.01 4.94202L3 13.03V29.207" stroke="#E6E6E6" stroke-width="3" stroke-miterlimit="10" stroke-linecap="round" stroke-linejoin="round"/>
<path d="M41 29.208V13.03L26.99 4.94202" stroke="#E6E6E6" stroke-width="3" stroke-miterlimit="10" stroke-linecap="round" stroke-linejoin="round"/>
<path d="M27 5V12C27 13.657 24.761 15 22 15C19.239 15 17 13.657 17 12V5" stroke="#E6E6E6" stroke-width="3" stroke-miterlimit="10" stroke-linecap="round" stroke-linejoin="round"/>
<path d="M22 8C24.7614 8 27 6.65685 27 5C27 3.34315 24.7614 2 22 2C19.2386 2 17 3.34315 17 5C17 6.65685 19.2386 8 22 8Z" stroke="#E6E6E6" stroke-width="3" stroke-miterlimit="10" stroke-linecap="round" stroke-linejoin="round"/>
<path d="M3 13.03L22 24L41 13.03" stroke="#E6E6E6" stroke-width="3" stroke-miterlimit="10" stroke-linecap="round" stroke-linejoin="round"/>
<path d="M40.9541 29.17L34.8921 25.67C33.4571 24.841 31.1751 26.109 29.7921 28.5C28.4091 30.891 28.4551 33.5 29.8921 34.33L35.9541 37.83" stroke="#E6E6E6" stroke-width="3" stroke-miterlimit="10" stroke-linecap="round" stroke-linejoin="round"/>
<path d="M40.954 29.17C39.52 28.341 37.237 29.609 35.854 32C34.471 34.391 34.518 37 35.954 37.83C37.39 38.66 39.672 37.392 41.054 35C42.436 32.608 42.389 30 40.954 29.17Z" stroke="#E6E6E6" stroke-width="3" stroke-miterlimit="10" stroke-linecap="round" stroke-linejoin="round"/>
<path d="M22 24V45.939" stroke="#E6E6E6" stroke-width="3" stroke-miterlimit="10" stroke-linecap="round" stroke-linejoin="round"/>
<path d="M8.04517 37.83L14.1082 34.33C15.5422 33.502 15.5862 30.891 14.2082 28.5C12.8302 26.109 10.5442 24.841 9.10817 25.67L3.04517 29.17" stroke="#E6E6E6" stroke-width="3" stroke-miterlimit="10" stroke-linecap="round" stroke-linejoin="round"/>
<path d="M8.14305 32C6.76305 29.608 4.48005 28.341 3.04305 29.17C1.60605 29.999 1.56505 32.608 2.94305 35C4.32105 37.392 6.60706 38.659 8.04306 37.83C9.47906 37.001 9.52405 34.391 8.14305 32Z" stroke="#E6E6E6" stroke-width="3" stroke-miterlimit="10" stroke-linecap="round" stroke-linejoin="round"/>
</svg>
