<svg width="42" height="43" viewBox="0 0 42 43" fill="none" xmlns="http://www.w3.org/2000/svg">
<g clip-path="url(#clip0_329_1285)" filter="url(#filter0_d_329_1285)">
<path d="M32.6667 17.6667L21 6L6 21H9.33333V32.6667C9.33333 33.5507 9.68452 34.3986 10.3096 35.0237C10.9348 35.6488 11.7826 36 12.6667 36H25.1667" stroke="#11CABE" stroke-width="2.5" stroke-linecap="round" stroke-linejoin="round"/>
<path d="M16 36V26C16 25.116 16.3512 24.2681 16.9763 23.643C17.6014 23.0179 18.4493 22.6667 19.3333 22.6667H22.6667C23.7683 22.6667 24.7467 23.2 25.3533 24.025" stroke="#11CABE" stroke-width="2.5" stroke-linecap="round" stroke-linejoin="round"/>
<path d="M32.6666 24.3333L29.3333 31H35.9999L32.6666 37.6666" stroke="#11CABE" stroke-width="2.5" stroke-linecap="round" stroke-linejoin="round"/>
</g>
<defs>
<filter id="filter0_d_329_1285" x="-3" y="-3" width="48" height="48" filterUnits="userSpaceOnUse" color-interpolation-filters="sRGB">
<feFlood flood-opacity="0" result="BackgroundImageFix"/>
<feColorMatrix in="SourceAlpha" type="matrix" values="0 0 0 0 0 0 0 0 0 0 0 0 0 0 0 0 0 0 127 0" result="hardAlpha"/>
<feOffset/>
<feGaussianBlur stdDeviation="2"/>
<feColorMatrix type="matrix" values="0 0 0 0 0.0666667 0 0 0 0 0.792157 0 0 0 0 0.745098 0 0 0 1 0"/>
<feBlend mode="normal" in2="BackgroundImageFix" result="effect1_dropShadow_329_1285"/>
<feBlend mode="normal" in="SourceGraphic" in2="effect1_dropShadow_329_1285" result="shape"/>
</filter>
<clipPath id="clip0_329_1285">
<rect width="40" height="40" fill="white" transform="translate(1 1)"/>
</clipPath>
</defs>
</svg>
