<svg width="48" height="44" viewBox="0 0 48 44" fill="none" xmlns="http://www.w3.org/2000/svg">
<path d="M2 11V6C2 4.93913 2.42143 3.92172 3.17157 3.17157C3.92172 2.42143 4.93913 2 6 2H42C43.0609 2 44.0783 2.42143 44.8284 3.17157C45.5786 3.92172 46 4.93913 46 6V28C46 29.0609 45.5786 30.0783 44.8284 30.8284C44.0783 31.5786 43.0609 32 42 32H26L12 42V32H6C4.93913 32 3.92172 31.5786 3.17157 30.8284C2.42143 30.0783 2 29.0609 2 28V17H26" stroke="#E6E6E6" stroke-width="3" stroke-miterlimit="10" stroke-linecap="round" stroke-linejoin="round"/>
<path d="M18 9L26 17L18 25" stroke="#E6E6E6" stroke-width="3" stroke-miterlimit="10" stroke-linecap="round" stroke-linejoin="round"/>
</svg>
