<svg width="46" height="48" viewBox="0 0 46 48" fill="none" xmlns="http://www.w3.org/2000/svg">
<path d="M7 12V19" stroke="#E6E6E6" stroke-width="3" stroke-miterlimit="10" stroke-linecap="round" stroke-linejoin="round"/>
<path d="M12 24H18" stroke="#E6E6E6" stroke-width="3" stroke-miterlimit="10" stroke-linecap="round" stroke-linejoin="round"/>
<path d="M26.4263 27.6404L35.5734 37.3593" stroke="#E6E6E6" stroke-width="3" stroke-miterlimit="10" stroke-linecap="round" stroke-linejoin="round"/>
<path d="M34 41H28" stroke="#E6E6E6" stroke-width="3" stroke-miterlimit="10" stroke-linecap="round" stroke-linejoin="round"/>
<path d="M7 12C9.76142 12 12 9.76142 12 7C12 4.23858 9.76142 2 7 2C4.23858 2 2 4.23858 2 7C2 9.76142 4.23858 12 7 12Z" stroke="#E6E6E6" stroke-width="3" stroke-miterlimit="10" stroke-linecap="round" stroke-linejoin="round"/>
<path d="M23 12C25.7614 12 28 9.76142 28 7C28 4.23858 25.7614 2 23 2C20.2386 2 18 4.23858 18 7C18 9.76142 20.2386 12 23 12Z" stroke="#E6E6E6" stroke-width="3" stroke-miterlimit="10" stroke-linecap="round" stroke-linejoin="round"/>
<path d="M39 12C41.7614 12 44 9.76142 44 7C44 4.23858 41.7614 2 39 2C36.2386 2 34 4.23858 34 7C34 9.76142 36.2386 12 39 12Z" stroke="#E6E6E6" stroke-width="3" stroke-miterlimit="10" stroke-linecap="round" stroke-linejoin="round"/>
<path d="M7 29C9.76142 29 12 26.7614 12 24C12 21.2386 9.76142 19 7 19C4.23858 19 2 21.2386 2 24C2 26.7614 4.23858 29 7 29Z" stroke="#E6E6E6" stroke-width="3" stroke-miterlimit="10" stroke-linecap="round" stroke-linejoin="round"/>
<path d="M23 29C25.7614 29 28 26.7614 28 24C28 21.2386 25.7614 19 23 19C20.2386 19 18 21.2386 18 24C18 26.7614 20.2386 29 23 29Z" stroke="#E6E6E6" stroke-width="3" stroke-miterlimit="10" stroke-linecap="round" stroke-linejoin="round"/>
<path d="M39 29C41.7614 29 44 26.7614 44 24C44 21.2386 41.7614 19 39 19C36.2386 19 34 21.2386 34 24C34 26.7614 36.2386 29 39 29Z" stroke="#E6E6E6" stroke-width="3" stroke-miterlimit="10" stroke-linecap="round" stroke-linejoin="round"/>
<path d="M7 46C9.76142 46 12 43.7614 12 41C12 38.2386 9.76142 36 7 36C4.23858 36 2 38.2386 2 41C2 43.7614 4.23858 46 7 46Z" stroke="#E6E6E6" stroke-width="3" stroke-miterlimit="10" stroke-linecap="round" stroke-linejoin="round"/>
<path d="M23 46C25.7614 46 28 43.7614 28 41C28 38.2386 25.7614 36 23 36C20.2386 36 18 38.2386 18 41C18 43.7614 20.2386 46 23 46Z" stroke="#E6E6E6" stroke-width="3" stroke-miterlimit="10" stroke-linecap="round" stroke-linejoin="round"/>
<path d="M39 46C41.7614 46 44 43.7614 44 41C44 38.2386 41.7614 36 39 36C36.2386 36 34 38.2386 34 41C34 43.7614 36.2386 46 39 46Z" stroke="#E6E6E6" stroke-width="3" stroke-miterlimit="10" stroke-linecap="round" stroke-linejoin="round"/>
</svg>
