<svg width="44" height="44" viewBox="0 0 44 44" fill="none" xmlns="http://www.w3.org/2000/svg">
<path d="M30 14H14V30H30V14Z" stroke="#E6E6E6" stroke-width="3" stroke-miterlimit="10" stroke-linecap="round" stroke-linejoin="round"/>
<path d="M2 8C2 4.7 4.7 2 8 2C11.3 2 14 4.7 14 8C14 9.5 14 14 14 14C14 14 9.8 14 8 14C4.7 14 2 11.3 2 8Z" stroke="#E6E6E6" stroke-width="3" stroke-miterlimit="10" stroke-linecap="round" stroke-linejoin="round"/>
<path d="M42 8C42 4.7 39.3 2 36 2C32.7 2 30 4.7 30 8C30 9.5 30 14 30 14C30 14 34.2 14 36 14C39.3 14 42 11.3 42 8Z" stroke="#E6E6E6" stroke-width="3" stroke-miterlimit="10" stroke-linecap="round" stroke-linejoin="round"/>
<path d="M42 36C42 39.3 39.3 42 36 42C32.7 42 30 39.3 30 36C30 34.5 30 30 30 30C30 30 34.2 30 36 30C39.3 30 42 32.7 42 36Z" stroke="#E6E6E6" stroke-width="3" stroke-miterlimit="10" stroke-linecap="round" stroke-linejoin="round"/>
<path d="M2 36C2 39.3 4.7 42 8 42C11.3 42 14 39.3 14 36C14 34.5 14 30 14 30C14 30 9.8 30 8 30C4.7 30 2 32.7 2 36Z" stroke="#E6E6E6" stroke-width="3" stroke-miterlimit="10" stroke-linecap="round" stroke-linejoin="round"/>
</svg>
