<?xml version="1.0" encoding="utf-8"?>
<!-- Generator: Adobe Illustrator 25.1.0, SVG Export Plug-In . SVG Version: 6.00 Build 0) -->
<svg version="1.1" id="Layer_1" xmlns="http://www.w3.org/2000/svg" xmlns:xlink="http://www.w3.org/1999/xlink" x="0px" y="0px" viewBox="0 0 111 33" style="enable-background:new 0 0 111 33;" xml:space="preserve">
	<style type="text/css">
		.st0{fill:#FFFFFF;}
		.st1{fill:#2962FF;}
	</style>
	<path class="st0" d="M37,23.3c3.1,0,5.5-1.8,6-4.6h-2.4c-0.4,1.5-1.8,2.4-3.6,2.4c-2.4,0-4-1.8-4-4.6c0-2.8,1.5-4.6,4-4.6
	c1.7,0,3.1,0.9,3.5,2.4H43c-0.5-2.8-2.8-4.6-5.9-4.6c-3.9,0-6.4,2.7-6.4,6.8C30.7,20.7,33.2,23.3,37,23.3z M49.4,14.2
	c-0.4-0.1-0.7-0.1-1-0.1c-1.2,0-2,0.6-2.4,1.5l-0.1-1.3h-2.1v8.9H46v-4.3c0-1.7,1-2.6,2.6-2.6h0.8V14.2z M53.5,23.3
	c2.3,0,3.9-1.2,4.3-3.1h-2c-0.3,0.8-1,1.3-2.2,1.3c-1.5,0-2.3-0.8-2.4-2.4l6.7,0v-0.7c0-2.8-1.7-4.6-4.4-4.6c-2.6,0-4.4,1.9-4.4,4.7
	C49,21.4,50.9,23.3,53.5,23.3z M53.5,15.7c1.3,0,2.2,0.8,2.2,2h-4.5C51.4,16.4,52.2,15.7,53.5,15.7z M60.2,23.1h2.1l1.2-3.8
	c0.5-1.5,0.6-2.1,0.7-2.5c0.1,0.5,0.3,1.3,0.6,2.5l1.2,3.9h2.1l3.1-8.9h-2.3L67.7,18c-0.2,0.6-0.5,1.6-0.6,2.3
	c-0.1-0.6-0.5-1.9-0.6-2.3l-1.2-3.8h-2.2L61.9,18c-0.3,0.9-0.5,1.4-0.6,2.3c-0.2-0.8-0.3-1.6-0.5-2.3l-1.2-3.8h-2.3L60.2,23.1z
	 M78,9.9h-2.3v13.2h7.8V21H78V9.9z M86.7,23.3c1.4,0,2.6-0.6,3-1.5l0.2,1.3h1.9v-5.4c0-2.5-1.5-3.8-3.9-3.8c-2.4,0-4,1.3-4,3.2h1.9
	c0-0.9,0.7-1.5,2-1.5c1.1,0,1.8,0.5,1.8,1.7v0.2L87,17.7c-2.1,0.2-3.3,1.2-3.3,2.8C83.7,22.2,84.8,23.3,86.7,23.3z M87.4,21.7
	c-1,0-1.5-0.4-1.5-1.2c0-0.7,0.5-1.2,1.9-1.3l1.9-0.1v0.5C89.7,20.9,88.8,21.7,87.4,21.7z M95,23.1l0.1-1.4c0.5,1,1.7,1.6,3,1.6
	c2.6,0,4.2-1.9,4.2-4.6c0-2.8-1.5-4.8-4.1-4.8c-1.3,0-2.5,0.6-3.1,1.6V9.7h-2.2v13.4H95z M95.1,18.6c0-1.6,1-2.7,2.5-2.7
	c1.5,0,2.5,1.1,2.5,2.7s-0.9,2.7-2.5,2.7C96.1,21.3,95.1,20.2,95.1,18.6z M102.4,20.4c0,1.7,1.4,2.9,3.6,2.9c2.2,0,3.7-1.1,3.7-2.9
	c0-1.4-0.8-2.1-2.2-2.4l-1.6-0.4c-0.8-0.2-1.2-0.5-1.2-1c0-0.7,0.5-1.1,1.4-1.1c0.8,0,1.4,0.5,1.4,1.2h2.1c0-1.7-1.4-2.9-3.4-2.9
	c-2.1,0-3.5,1-3.5,2.8c0,1.4,0.8,2.2,2.4,2.5l1.6,0.4c0.8,0.2,1,0.5,1,1c0,0.6-0.6,1.1-1.6,1.1c-1,0-1.6-0.5-1.6-1.3H102.4z" />
	<g>
		<g>
			<g>
				<path class="st1" d="M14.7,3.2l-0.6,1.9L14.7,3.2C14.7,3.2,14.7,3.2,14.7,3.2z" />
				<path class="st1" d="M21.3,11.5l1.7-6c0.2-0.6-0.2-1.3-0.8-1.5l-5-1.4l-0.9-0.3l-0.1,0c-0.6-0.2-1.3,0.2-1.5,0.8l0,0l-0.6,2
				l0,0.1L13,9.1C12.8,9.6,12.5,9.9,12,10c-4.6,0.9-8.1,4.9-8.4,9.7c0,0,0,0.1,0,0.1c0,0,0,0,0,0.1c0,0.1,0,0.2,0,0.3
				c0,0.1,0,0.2,0,0.2C3.6,26.2,8.3,31,14.2,31c5.9,0,10.6-4.8,10.6-10.6c0-2.9-1.2-5.7-3.2-7.6C21.3,12.4,21.1,12,21.3,11.5z
				 M14.2,28.5c-4.5,0-8.1-3.6-8.1-8.1c0,0,0-0.1,0-0.1c0,0,0-0.1,0-0.1c0-0.1,0-0.1,0-0.2c0,0,0-0.1,0-0.1c0,0,0,0,0-0.1
				c0.3-4.1,3.6-7.4,7.7-7.6c0.5,0,0.9-0.4,1.1-0.9l1.8-6c0-0.2,0.2-0.3,0.4-0.2l2.8,0.8c0.2,0,0.3,0.2,0.2,0.4l-1.7,6
				c-0.1,0.5,0,1,0.5,1.3c2.2,1.5,3.5,4,3.5,6.6C22.3,24.8,18.7,28.5,14.2,28.5z" />
			</g>
			<path class="st1" d="M14.7,3.2l-0.6,2L14.7,3.2C14.7,3.2,14.7,3.2,14.7,3.2z" />
		</g>
		<g>
			<path class="st1" d="M19.6,24.1c0,0.1-0.1,0.1-0.1,0.2c-0.3,0.4-0.6,0.7-1,1.1c-0.2,0.1-0.3,0.2-0.5,0.4c-0.4,0.3-0.9,0.5-1.3,0.7
			c-0.1,0-0.1,0-0.2,0.1c-0.7,0.3-1.5,0.4-2.3,0.4c-0.8,0-1.5-0.1-2.2-0.4c0,0,0,0,0,0c-0.1,0-0.1-0.1-0.2-0.1
			c-0.6-0.2-1.2-0.6-1.8-1c0,0-0.1-0.1-0.1-0.1c-0.4-0.3-0.7-0.7-1-1.1c0-0.1-0.1-0.1-0.1-0.2c-0.1-0.2-0.1-0.3-0.1-0.5
			c0-0.2,0.1-0.4,0.2-0.6l0.7-1.2l0,0c0.2-0.4,0.6-0.6,1.1-0.6c0.1,0,0.2,0,0.4,0c0.5,0.2,0.9,0.7,0.9,1.2V24c0,0.3,0.2,0.5,0.5,0.5
			h0c0.3,0,0.5-0.2,0.5-0.5v-3c0,0,0,0,0-0.1c0-0.7,0.6-1.2,1.2-1.3c0.1,0,0.2,0,0.4,0c0.6,0.1,1,0.6,1,1.3V24
			c0,0.3,0.2,0.5,0.5,0.5c0.1,0,0.3-0.1,0.4-0.1c0.1-0.1,0.1-0.2,0.1-0.4v-1.4c0-0.5,0.3-0.9,0.7-1.1c0,0,0,0,0,0
			c0.2-0.1,0.4-0.1,0.6-0.1c0.5,0,0.9,0.2,1.1,0.6l0,0c0.2,0.4,0.5,0.8,0.7,1.1C19.7,23.4,19.7,23.8,19.6,24.1z" />
			<path class="st1" d="M19.1,19.1c0,0.7-0.6,1.3-1.3,1.3c-0.2,0-0.4-0.1-0.6-0.2c-0.4-0.2-0.7-0.7-0.7-1.2c0-0.5,0.3-0.9,0.7-1.2
			c0.2-0.1,0.4-0.2,0.6-0.2C18.5,17.8,19.1,18.4,19.1,19.1z" />
			<path class="st1" d="M15.5,17.5c0,0.7-0.6,1.3-1.3,1.3c-0.1,0-0.1,0-0.2,0c-0.7-0.1-1.2-0.6-1.2-1.3c0-0.3,0.1-0.5,0.2-0.7
			c0.2-0.4,0.6-0.6,1.1-0.6C14.9,16.2,15.5,16.8,15.5,17.5z" />
			<path class="st1" d="M11.9,19.1c0,0.6-0.4,1.1-1,1.3c-0.1,0-0.2,0-0.3,0c-0.7,0-1.3-0.6-1.3-1.3c0-0.7,0.6-1.3,1.3-1.3
			c0.1,0,0.2,0,0.3,0c0.2,0.1,0.5,0.2,0.6,0.4c0.2,0.2,0.3,0.4,0.3,0.7C11.9,19,11.9,19,11.9,19.1z" />
		</g>
	</g>
</svg>
